<svg width="135" height="40" viewBox="0 0 135 40" fill="none" xmlns="http://www.w3.org/2000/svg">
<g clip-path="url(#clip0_2_10210)">
<path d="M130 0H5C2.23858 0 0 2.23858 0 5V35C0 37.7614 2.23858 40 5 40H130C132.761 40 135 37.7614 135 35V5C135 2.23858 132.761 0 130 0Z" fill="black"/>
<path d="M130 0.8C131.114 0.8 132.182 1.2425 132.97 2.03015C133.758 2.8178 134.2 3.88609 134.2 5V35C134.2 36.1139 133.758 37.1822 132.97 37.9698C132.182 38.7575 131.114 39.2 130 39.2H5C3.88609 39.2 2.8178 38.7575 2.03015 37.9698C1.2425 37.1822 0.8 36.1139 0.8 35V5C0.8 3.88609 1.2425 2.8178 2.03015 2.03015C2.8178 1.2425 3.88609 0.8 5 0.8H130ZM130 0H5C3.67392 0 2.40215 0.526784 1.46447 1.46447C0.526784 2.40215 0 3.67392 0 5V35C0 36.3261 0.526784 37.5979 1.46447 38.5355C2.40215 39.4732 3.67392 40 5 40H130C131.326 40 132.598 39.4732 133.536 38.5355C134.473 37.5979 135 36.3261 135 35V5C135 3.67392 134.473 2.40215 133.536 1.46447C132.598 0.526784 131.326 0 130 0Z" fill="#A6A6A6"/>
<path d="M68.1401 21.7499C67.2976 21.7519 66.4745 22.0037 65.7751 22.4734C65.0756 22.9432 64.5312 23.6098 64.2106 24.3889C63.89 25.1681 63.8076 26.0248 63.9739 26.8508C64.1402 27.6768 64.5477 28.4349 65.1449 29.0293C65.7421 29.6236 66.5021 30.0276 67.3288 30.19C68.1556 30.3524 69.0119 30.2661 69.7896 29.9418C70.5672 29.6175 71.2313 29.07 71.6977 28.3683C72.1642 27.6667 72.4121 26.8425 72.4101 25.9999C72.4183 25.4379 72.3132 24.8799 72.1013 24.3593C71.8893 23.8386 71.5748 23.366 71.1764 22.9694C70.7779 22.5729 70.3038 22.2606 69.7822 22.051C69.2606 21.8415 68.7021 21.7391 68.1401 21.7499ZM68.1401 28.5799C67.6237 28.616 67.1083 28.496 66.6611 28.2353C66.2138 27.9747 65.8553 27.5855 65.6321 27.1184C65.409 26.6512 65.3315 26.1278 65.4098 25.6161C65.4881 25.1043 65.7185 24.628 66.0711 24.249C66.4237 23.8699 66.8821 23.6057 67.3869 23.4907C67.8916 23.3757 68.4193 23.4152 68.9013 23.604C69.3833 23.7929 69.7973 24.1223 70.0896 24.5496C70.3819 24.9769 70.5388 25.4822 70.5401 25.9999C70.5562 26.3279 70.5065 26.6559 70.3938 26.9643C70.2812 27.2728 70.1079 27.5556 69.8842 27.7961C69.6606 28.0366 69.391 28.2298 69.0914 28.3644C68.7919 28.499 68.4684 28.5723 68.1401 28.5799ZM58.8201 21.7499C57.9776 21.7519 57.1545 22.0037 56.4551 22.4734C55.7556 22.9432 55.2112 23.6098 54.8906 24.3889C54.57 25.1681 54.4876 26.0248 54.6539 26.8508C54.8202 27.6768 55.2277 28.4349 55.8249 29.0293C56.4221 29.6236 57.1821 30.0276 58.0088 30.19C58.8356 30.3524 59.6919 30.2661 60.4696 29.9418C61.2472 29.6175 61.9113 29.07 62.3777 28.3683C62.8442 27.6667 63.0921 26.8425 63.0901 25.9999C63.0982 25.4379 62.9932 24.8799 62.7813 24.3593C62.5693 23.8386 62.2548 23.366 61.8564 22.9694C61.4579 22.5729 60.9838 22.2606 60.4622 22.051C59.9406 21.8415 59.3821 21.7391 58.8201 21.7499ZM58.8201 28.5799C58.3037 28.616 57.7883 28.496 57.3411 28.2353C56.8938 27.9747 56.5353 27.5855 56.3121 27.1184C56.089 26.6512 56.0115 26.1278 56.0898 25.6161C56.1681 25.1043 56.3985 24.628 56.7511 24.249C57.1037 23.8699 57.5621 23.6057 58.0669 23.4907C58.5716 23.3757 59.0993 23.4152 59.5813 23.604C60.0633 23.7929 60.4773 24.1223 60.7696 24.5496C61.0619 24.9769 61.2188 25.4822 61.2201 25.9999C61.2362 26.3279 61.1865 26.6559 61.0738 26.9643C60.9612 27.2728 60.7879 27.5556 60.5642 27.7961C60.3406 28.0366 60.071 28.2298 59.7714 28.3644C59.4719 28.499 59.1484 28.5723 58.8201 28.5799ZM47.7401 23.0599V24.8599H52.0601C51.9924 25.7077 51.6399 26.5077 51.0601 27.1299C50.6268 27.5714 50.1056 27.9171 49.5302 28.1444C48.9549 28.3718 48.3382 28.4759 47.7201 28.4499C46.4471 28.4499 45.2262 27.9442 44.326 27.044C43.4258 26.1439 42.9201 24.923 42.9201 23.6499C42.9201 22.3769 43.4258 21.156 44.326 20.2558C45.2262 19.3556 46.4471 18.8499 47.7201 18.8499C48.9405 18.8318 50.119 19.2952 51.0001 20.1399L52.2701 18.8699C51.6741 18.2804 50.9664 17.8158 50.1886 17.5033C49.4107 17.1908 48.5783 17.0366 47.7401 17.0499C46.8511 17.0153 45.9643 17.1605 45.1327 17.4769C44.3012 17.7932 43.5421 18.2742 42.9009 18.8909C42.2596 19.5077 41.7495 20.2475 41.4011 21.0661C41.0527 21.8847 40.873 22.7652 40.873 23.6549C40.873 24.5446 41.0527 25.4251 41.4011 26.2437C41.7495 27.0623 42.2596 27.8022 42.9009 28.4189C43.5421 29.0357 44.3012 29.5166 45.1327 29.833C45.9643 30.1493 46.8511 30.2945 47.7401 30.2599C48.5955 30.2941 49.4485 30.1469 50.243 29.8281C51.0375 29.5092 51.7556 29.0259 52.3501 28.4099C53.4002 27.2563 53.9598 25.7391 53.9101 24.1799C53.9137 23.8046 53.8836 23.4298 53.8201 23.0599H47.7401ZM93.0501 24.4599C92.7893 23.6927 92.3016 23.0227 91.6516 22.5388C91.0016 22.0548 90.2199 21.7797 89.4101 21.7499C88.8631 21.7489 88.3217 21.86 87.8193 22.0765C87.317 22.2929 86.8644 22.6101 86.4895 23.0085C86.1146 23.4068 85.8254 23.8778 85.6397 24.3923C85.4541 24.9068 85.3759 25.454 85.4101 25.9999C85.4016 26.9128 85.6885 27.8039 86.2282 28.5402C86.7679 29.2765 87.5313 29.8184 88.4044 30.0851C89.2774 30.3517 90.2134 30.3288 91.0723 30.0196C91.9313 29.7105 92.6672 29.1318 93.1701 28.3699L91.7201 27.3699C91.5039 27.7302 91.1974 28.0277 90.8307 28.2329C90.4641 28.4382 90.0502 28.544 89.6301 28.5399C89.1967 28.5578 88.768 28.4442 88.4003 28.214C88.0327 27.9837 87.7432 27.6477 87.5701 27.2499L93.2601 24.8999L93.0501 24.4599ZM87.2501 25.8799C87.2298 25.5693 87.2717 25.2578 87.3734 24.9635C87.475 24.6693 87.6343 24.3983 87.842 24.1664C88.0497 23.9346 88.3015 23.7464 88.5828 23.6131C88.8641 23.4798 89.1691 23.4039 89.4801 23.3899C89.8023 23.3703 90.1231 23.4461 90.4024 23.608C90.6817 23.7699 90.907 24.0106 91.0501 24.2999L87.2501 25.8799ZM82.6301 29.9999H84.5001V17.4999H82.6301V29.9999ZM79.5701 22.6999H79.5001C79.2207 22.3818 78.876 22.1277 78.4894 21.9551C78.1028 21.7825 77.6835 21.6955 77.2601 21.6999C76.1673 21.7529 75.1367 22.2243 74.3821 23.0165C73.6274 23.8087 73.2064 24.8608 73.2064 25.9549C73.2064 27.049 73.6274 28.1012 74.3821 28.8933C75.1367 29.6855 76.1673 30.1569 77.2601 30.2099C77.6841 30.2184 78.1047 30.1332 78.4919 29.9603C78.8791 29.7875 79.2234 29.5312 79.5001 29.2099H79.5701V29.8199C79.5701 31.4499 78.7001 32.3199 77.3001 32.3199C76.8324 32.3096 76.3783 32.1606 75.9955 31.8918C75.6127 31.6229 75.3185 31.2464 75.1501 30.8099L73.5301 31.4799C73.8296 32.2322 74.3504 32.8758 75.0235 33.3258C75.6966 33.7757 76.4905 34.0108 77.3001 33.9999C79.4901 33.9999 81.3001 32.7099 81.3001 29.5699V21.9999H79.5701V22.6999ZM77.4201 28.5799C76.7649 28.5391 76.1499 28.25 75.7004 27.7716C75.2509 27.2932 75.0006 26.6614 75.0006 26.0049C75.0006 25.3485 75.2509 24.7167 75.7004 24.2383C76.1499 23.7598 76.7649 23.4708 77.4201 23.4299C77.7403 23.4437 78.0545 23.5218 78.344 23.6596C78.6334 23.7973 78.8922 23.9918 79.1049 24.2316C79.3176 24.4714 79.4799 24.7515 79.5822 25.0553C79.6844 25.3591 79.7245 25.6803 79.7001 25.9999C79.7274 26.3206 79.6893 26.6435 79.5883 26.9491C79.4872 27.2546 79.3252 27.5365 79.1121 27.7777C78.8989 28.0189 78.6391 28.2143 78.3483 28.3522C78.0575 28.4901 77.7417 28.5676 77.4201 28.5799ZM101.81 17.4999H97.3301V29.9999H99.2001V25.2599H101.81C102.343 25.2982 102.878 25.2263 103.382 25.0487C103.886 24.871 104.348 24.5915 104.739 24.2274C105.13 23.8634 105.442 23.4227 105.655 22.9328C105.869 22.4428 105.979 21.9142 105.979 21.3799C105.979 20.8456 105.869 20.317 105.655 19.8271C105.442 19.3372 105.13 18.8965 104.739 18.5324C104.348 18.1684 103.886 17.8888 103.382 17.7112C102.878 17.5336 102.343 17.4616 101.81 17.4999ZM101.81 23.4999H99.2001V19.2399H101.85C102.131 19.2399 102.409 19.2953 102.669 19.4028C102.929 19.5104 103.165 19.668 103.363 19.8667C103.562 20.0654 103.72 20.3013 103.827 20.561C103.935 20.8206 103.99 21.0989 103.99 21.3799C103.99 21.661 103.935 21.9392 103.827 22.1989C103.72 22.4585 103.562 22.6944 103.363 22.8931C103.165 23.0918 102.929 23.2495 102.669 23.357C102.409 23.4646 102.131 23.5199 101.85 23.5199L101.81 23.4999ZM113.35 21.7099C112.669 21.6679 111.991 21.8265 111.399 22.1659C110.807 22.5054 110.328 23.0109 110.02 23.6199L111.67 24.3099C111.837 24.0093 112.087 23.7634 112.39 23.602C112.694 23.4405 113.038 23.3703 113.38 23.3999C113.617 23.3722 113.858 23.392 114.088 23.4582C114.317 23.5245 114.531 23.6358 114.718 23.7856C114.904 23.9355 115.058 24.1209 115.172 24.3311C115.286 24.5413 115.356 24.7721 115.38 25.0099V25.1299C114.779 24.8138 114.109 24.6491 113.43 24.6499C111.65 24.6499 109.83 25.6499 109.83 27.4699C109.848 27.8568 109.943 28.2361 110.11 28.5855C110.277 28.9348 110.513 29.247 110.803 29.5035C111.093 29.7601 111.432 29.9557 111.799 30.0787C112.166 30.2018 112.554 30.2498 112.94 30.2199C113.409 30.2459 113.877 30.1466 114.295 29.9322C114.714 29.7178 115.067 29.3961 115.32 28.9999H115.38V29.9999H117.18V25.1899C117.18 22.9999 115.52 21.7299 113.39 21.7299L113.35 21.7099ZM113.12 28.5599C112.51 28.5599 111.66 28.2499 111.66 27.4999C111.66 26.4999 112.72 26.1599 113.66 26.1599C114.254 26.1453 114.841 26.2903 115.36 26.5799C115.297 27.123 115.04 27.6249 114.635 27.9926C114.231 28.3604 113.707 28.569 113.16 28.5799L113.12 28.5599ZM123.74 21.9999L121.6 27.4199H121.54L119.32 21.9999H117.32L120.65 29.5799L118.75 33.7899H120.7L125.82 21.9999H123.74ZM106.94 29.9999H108.8V17.4999H106.94V29.9999Z" fill="white"/>
<path d="M10.4401 7.53973C10.1106 7.92935 9.94245 8.43019 9.97012 8.93973V31.0597C9.93609 31.5701 10.105 32.0733 10.4401 32.4597L10.5101 32.5397L22.9001 20.1497V19.8497L10.5101 7.46973L10.4401 7.53973Z" fill="url(#paint0_linear_2_10210)"/>
<path d="M27.0004 24.2797L22.9004 20.1497V19.8497L27.0004 15.7197L27.0904 15.7797L32.0004 18.5597C33.4004 19.3497 33.4004 20.6497 32.0004 21.4497L27.1104 24.2297L27.0004 24.2797Z" fill="url(#paint1_linear_2_10210)"/>
<path d="M27.1204 24.22L22.9004 20L10.4404 32.46C10.723 32.7115 11.0847 32.8562 11.4628 32.869C11.8409 32.8818 12.2115 32.7619 12.5104 32.53L27.1204 24.22Z" fill="url(#paint2_linear_2_10210)"/>
<path d="M27.1204 15.7805L12.5104 7.48046C12.2135 7.24537 11.8431 7.12251 11.4645 7.13349C11.0859 7.14446 10.7233 7.28857 10.4404 7.54046L22.9004 20.0005L27.1204 15.7805Z" fill="url(#paint3_linear_2_10210)"/>
<path opacity="0.2" d="M27.0004 24.1299L12.5104 32.3799C12.2224 32.5973 11.8713 32.7149 11.5104 32.7149C11.1495 32.7149 10.7985 32.5973 10.5104 32.3799L10.4404 32.4499L10.5104 32.5299C10.7985 32.7473 11.1495 32.8649 11.5104 32.8649C11.8713 32.8649 12.2224 32.7473 12.5104 32.5299L27.1204 24.2199L27.0004 24.1299Z" fill="black"/>
<path opacity="0.12" d="M10.4399 32.3202C10.1187 31.9235 9.96126 31.4191 9.99988 30.9102V31.0602C9.96585 31.5705 10.1348 32.0737 10.4699 32.4602L10.5399 32.3902L10.4399 32.3202Z" fill="black"/>
<path opacity="0.12" d="M32 21.3L27 24.13L27.09 24.22L32 21.44C32.2898 21.3174 32.5413 21.119 32.7278 20.8656C32.9143 20.6122 33.0291 20.3132 33.06 20C32.9975 20.2846 32.869 20.5505 32.6849 20.7763C32.5007 21.0021 32.2662 21.1815 32 21.3Z" fill="black"/>
<path opacity="0.25" d="M12.5097 7.61998L31.9997 18.7C32.2659 18.8185 32.5005 18.9979 32.6846 19.2237C32.8687 19.4495 32.9972 19.7154 33.0597 20C33.0288 19.6868 32.9141 19.3878 32.7275 19.1344C32.541 18.881 32.2896 18.6825 31.9997 18.56L12.5097 7.47998C11.1197 6.67998 9.96973 7.33998 9.96973 8.93998V9.08998C9.99973 7.48998 11.1197 6.82998 12.5097 7.61998Z" fill="white"/>
<path d="M42.1099 14.27H41.3799V12.27H41.9999C42.2788 11.9672 42.4886 11.6073 42.6147 11.2153C42.7407 10.8234 42.78 10.4087 42.7299 10V7H46.7299V12.26H47.3999V14.26H46.6599V13H42.1099V14.27ZM43.4999 10C43.5445 10.8033 43.3459 11.6014 42.9299 12.29H45.9299V7.74H43.4999V10Z" fill="white" stroke="white" stroke-width="0.2" stroke-miterlimit="10"/>
<path d="M53.4104 12.2201C53.1224 12.5088 52.7803 12.7379 52.4036 12.8942C52.027 13.0506 51.6232 13.131 51.2154 13.131C50.8075 13.131 50.4037 13.0506 50.0271 12.8942C49.6504 12.7379 49.3083 12.5088 49.0204 12.2201C48.4483 11.6226 48.1289 10.8273 48.1289 10.0001C48.1289 9.17286 48.4483 8.37758 49.0204 7.78008C49.3083 7.49133 49.6504 7.26223 50.0271 7.10592C50.4037 6.9496 50.8075 6.86914 51.2154 6.86914C51.6232 6.86914 52.027 6.9496 52.4036 7.10592C52.7803 7.26223 53.1224 7.49133 53.4104 7.78008C53.6992 8.07208 53.9268 8.41891 54.0796 8.80016C54.2325 9.18142 54.3075 9.58939 54.3004 10.0001C54.3122 10.4114 54.2393 10.8207 54.0862 11.2026C53.933 11.5845 53.703 11.9309 53.4104 12.2201ZM49.5804 11.7201C49.7911 11.9389 50.0444 12.1122 50.3248 12.2292C50.6052 12.3461 50.9066 12.4043 51.2104 12.4001C51.5144 12.4061 51.8163 12.3488 52.0969 12.2317C52.3776 12.1146 52.6308 11.9404 52.8404 11.7201C53.2718 11.2512 53.5113 10.6373 53.5113 10.0001C53.5113 9.36288 53.2718 8.74896 52.8404 8.28008C52.6308 8.05979 52.3776 7.88555 52.0969 7.76848C51.8163 7.65141 51.5144 7.59406 51.2104 7.60008C50.9066 7.59587 50.6052 7.65404 50.3248 7.77101C50.0444 7.88797 49.7911 8.06124 49.5804 8.28008C49.1552 8.75209 48.9199 9.36483 48.9199 10.0001C48.9199 10.6353 49.1552 11.2481 49.5804 11.7201Z" fill="white" stroke="white" stroke-width="0.2" stroke-miterlimit="10"/>
<path d="M58.1796 13.1304C57.775 13.1367 57.3733 13.0612 56.9987 12.9082C56.624 12.7552 56.2842 12.5281 55.9996 12.2404C55.4226 11.6374 55.1006 10.835 55.1006 10.0004C55.1006 9.16579 55.4226 8.36338 55.9996 7.76038C56.2889 7.46772 56.6352 7.23769 57.0171 7.08458C57.399 6.93147 57.8084 6.85856 58.2197 6.87038C58.6383 6.85853 59.0541 6.94247 59.4354 7.11577C59.8166 7.28908 60.1533 7.54718 60.4196 7.87038L59.8896 8.39038C59.6932 8.1378 59.439 7.93604 59.1484 7.80206C58.8578 7.66807 58.5393 7.60577 58.2197 7.62038C57.9118 7.61253 57.6057 7.66794 57.3202 7.78318C57.0346 7.89843 56.7758 8.07106 56.5596 8.29038C56.1289 8.76359 55.8902 9.38048 55.8902 10.0204C55.8902 10.6603 56.1289 11.2772 56.5596 11.7504C56.7758 11.9697 57.0346 12.1423 57.3202 12.2576C57.6057 12.3728 57.9118 12.4282 58.2197 12.4204C58.5633 12.4106 58.9006 12.3259 59.208 12.1722C59.5155 12.0184 59.7857 11.7994 59.9996 11.5304L60.5396 12.0604C60.2657 12.3887 59.9248 12.6546 59.5396 12.8404C59.1142 13.0391 58.6491 13.1383 58.1796 13.1304Z" fill="white" stroke="white" stroke-width="0.2" stroke-miterlimit="10"/>
<path d="M63.6805 13H62.9105V7.74H61.2305V7H65.3505V7.74H63.6805V13Z" fill="white" stroke="white" stroke-width="0.2" stroke-miterlimit="10"/>
<path d="M70.6497 7L68.3796 12.06C68.3246 12.2629 68.2261 12.4514 68.091 12.6124C67.9558 12.7734 67.7873 12.9031 67.597 12.9925C67.4068 13.0819 67.1994 13.1289 66.9892 13.1302C66.779 13.1315 66.571 13.0871 66.3796 13L66.5797 12.29C66.702 12.3588 66.8393 12.3965 66.9797 12.4C67.1276 12.4074 67.2743 12.369 67.3997 12.29C67.5211 12.1889 67.6142 12.058 67.6696 11.91L67.8896 11.43L65.8896 7H66.7997L68.2796 10.44L69.7396 7H70.6497Z" fill="white" stroke="white" stroke-width="0.2" stroke-miterlimit="10"/>
<path d="M71.5195 13V7H75.8595V13H75.0895V7.74H72.2895V13H71.5195Z" fill="white" stroke="white" stroke-width="0.2" stroke-miterlimit="10"/>
<path d="M77.2305 13V7H78.0005V9.57H81.0005V7H81.7805V13H81.0005V10.29H78.0005V13H77.2305Z" fill="white" stroke="white" stroke-width="0.2" stroke-miterlimit="10"/>
<path d="M88.06 12.2201C87.7712 12.5091 87.4282 12.7385 87.0507 12.8949C86.6732 13.0514 86.2686 13.1319 85.86 13.1319C85.4514 13.1319 85.0468 13.0514 84.6693 12.8949C84.2918 12.7385 83.9488 12.5091 83.66 12.2201C83.0879 11.6226 82.7686 10.8273 82.7686 10.0001C82.7686 9.17286 83.0879 8.37758 83.66 7.78008C83.948 7.49133 84.2901 7.26223 84.6667 7.10592C85.0434 6.9496 85.4472 6.86914 85.855 6.86914C86.2628 6.86914 86.6666 6.9496 87.0433 7.10592C87.4199 7.26223 87.762 7.49133 88.05 7.78008C88.6176 8.3799 88.9338 9.17431 88.9338 10.0001C88.9338 10.8259 88.6176 11.6203 88.05 12.2201H88.06ZM84.23 11.7201C84.4396 11.9404 84.6928 12.1146 84.9734 12.2317C85.254 12.3488 85.556 12.4061 85.86 12.4001C86.1638 12.4043 86.4652 12.3461 86.7455 12.2292C87.0259 12.1122 87.2793 11.9389 87.49 11.7201C87.9151 11.2481 88.1504 10.6353 88.1504 10.0001C88.1504 9.36483 87.9151 8.75209 87.49 8.28008C87.2793 8.06124 87.0259 7.88797 86.7455 7.77101C86.4652 7.65404 86.1638 7.59587 85.86 7.60008C85.556 7.59406 85.254 7.65141 84.9734 7.76848C84.6928 7.88555 84.4396 8.05979 84.23 8.28008C83.7985 8.74896 83.559 9.36288 83.559 10.0001C83.559 10.6373 83.7985 11.2512 84.23 11.7201Z" fill="white" stroke="white" stroke-width="0.2" stroke-miterlimit="10"/>
<path d="M92.0898 13.0001V7.00009H94.2598C94.7097 6.99558 95.145 7.15968 95.4799 7.46009C95.6469 7.6051 95.7801 7.78507 95.87 7.98725C95.9599 8.18943 96.0042 8.40888 95.9998 8.63009C96.0023 8.89947 95.9258 9.16366 95.7798 9.39009C95.6322 9.6048 95.428 9.77441 95.1898 9.88009C95.4785 9.97881 95.7322 10.1595 95.9198 10.4001C96.1037 10.6452 96.202 10.9438 96.1998 11.2501C96.2049 11.4806 96.1592 11.7094 96.0659 11.9203C95.9726 12.1312 95.8339 12.3189 95.6599 12.4701C95.3128 12.7931 94.8539 12.9687 94.3798 12.9601L92.0898 13.0001ZM92.8598 9.57009H94.2598C94.3908 9.57767 94.5219 9.55552 94.6431 9.5053C94.7643 9.45508 94.8726 9.37809 94.9598 9.28009C95.1294 9.11392 95.2265 8.88748 95.2299 8.65009C95.2393 8.41196 95.157 8.17928 94.9998 8.00009C94.9158 7.90683 94.8121 7.83336 94.6963 7.78494C94.5804 7.73653 94.4553 7.71438 94.3298 7.72009H92.8898L92.8598 9.57009ZM92.8598 12.2601H94.4198C94.5553 12.2646 94.69 12.2392 94.8145 12.1856C94.939 12.132 95.0501 12.0516 95.1398 11.9501C95.3125 11.7657 95.409 11.5227 95.4099 11.2701C95.4038 11.0196 95.3038 10.7805 95.1298 10.6001C95.0334 10.4989 94.9169 10.419 94.7877 10.3656C94.6585 10.3122 94.5196 10.2865 94.3798 10.2901H92.8598V12.2601Z" fill="white" stroke="white" stroke-width="0.2" stroke-miterlimit="10"/>
</g>
<defs>
<linearGradient id="paint0_linear_2_10210" x1="21.8001" y1="8.70973" x2="5.02012" y2="25.4897" gradientUnits="userSpaceOnUse">
<stop stop-color="#00A0FF"/>
<stop offset="0.01" stop-color="#00A1FF"/>
<stop offset="0.26" stop-color="#00BEFF"/>
<stop offset="0.51" stop-color="#00D2FF"/>
<stop offset="0.76" stop-color="#00DFFF"/>
<stop offset="1" stop-color="#00E3FF"/>
</linearGradient>
<linearGradient id="paint1_linear_2_10210" x1="33.8304" y1="19.9997" x2="9.64039" y2="19.9997" gradientUnits="userSpaceOnUse">
<stop stop-color="#FFE000"/>
<stop offset="0.41" stop-color="#FFBD00"/>
<stop offset="0.78" stop-color="#FFA500"/>
<stop offset="1" stop-color="#FF9C00"/>
</linearGradient>
<linearGradient id="paint2_linear_2_10210" x1="24.8304" y1="22.3" x2="2.07043" y2="45.05" gradientUnits="userSpaceOnUse">
<stop stop-color="#FF3A44"/>
<stop offset="1" stop-color="#C31162"/>
</linearGradient>
<linearGradient id="paint3_linear_2_10210" x1="7.30043" y1="0.180458" x2="17.4604" y2="10.3405" gradientUnits="userSpaceOnUse">
<stop stop-color="#32A071"/>
<stop offset="0.07" stop-color="#2DA771"/>
<stop offset="0.48" stop-color="#15CF74"/>
<stop offset="0.8" stop-color="#06E775"/>
<stop offset="1" stop-color="#00F076"/>
</linearGradient>
<clipPath id="clip0_2_10210">
<rect width="135" height="40" fill="white"/>
</clipPath>
</defs>
</svg>
