<svg width="20" height="20" viewBox="0 0 20 20" fill="none" xmlns="http://www.w3.org/2000/svg">
<path fill-rule="evenodd" clip-rule="evenodd" d="M20 10C20 15.5228 15.5228 20 10 20C4.47715 20 0 15.5228 0 10C0 4.47715 4.47715 0 10 0C15.5228 0 20 4.47715 20 10ZM5.77087 7.66658C5.77087 6.61955 6.61967 5.77075 7.66671 5.77075H12.3334C13.3804 5.77075 14.2292 6.61955 14.2292 7.66658V12.3333C14.2292 13.3803 13.3804 14.2291 12.3334 14.2291H7.66671C6.61967 14.2291 5.77087 13.3803 5.77087 12.3333V7.66658ZM7.66671 4.89575C6.13642 4.89575 4.89587 6.1363 4.89587 7.66658V12.3333C4.89587 13.8635 6.13642 15.1041 7.66671 15.1041H12.3334C13.8637 15.1041 15.1042 13.8635 15.1042 12.3333V7.66658C15.1042 6.1363 13.8637 4.89575 12.3334 4.89575H7.66671ZM8.6875 10C8.6875 9.27513 9.27513 8.6875 10 8.6875C10.7249 8.6875 11.3125 9.27513 11.3125 10C11.3125 10.7249 10.7249 11.3125 10 11.3125C9.27513 11.3125 8.6875 10.7249 8.6875 10ZM10 7.8125C8.79188 7.8125 7.8125 8.79188 7.8125 10C7.8125 11.2081 8.79188 12.1875 10 12.1875C11.2081 12.1875 12.1875 11.2081 12.1875 10C12.1875 8.79188 11.2081 7.8125 10 7.8125ZM12.625 6.9375C12.8666 6.9375 13.0625 7.13338 13.0625 7.375V7.376C13.0625 7.61762 12.8666 7.8135 12.625 7.8135C12.3834 7.8135 12.1875 7.61762 12.1875 7.376V7.375C12.1875 7.13338 12.3834 6.9375 12.625 6.9375Z" fill="#CCCCCC"/>
</svg>
