<svg width="20" height="20" viewBox="0 0 20 20" fill="none" xmlns="http://www.w3.org/2000/svg">
<path fill-rule="evenodd" clip-rule="evenodd" d="M10 20C15.5228 20 20 15.5228 20 10C20 4.47715 15.5228 0 10 0C4.47715 0 0 4.47715 0 10C0 15.5228 4.47715 20 10 20ZM9.86696 8.24512L9.88683 8.56951L9.55565 8.52979C8.35019 8.37752 7.29707 7.86114 6.40291 6.99388L5.96576 6.56355L5.85316 6.88133C5.61472 7.5897 5.76706 8.3378 6.26381 8.84095C6.52875 9.119 6.46914 9.15872 6.01212 8.99321C5.85316 8.94025 5.71407 8.90053 5.70082 8.92039C5.65446 8.96673 5.81342 9.56918 5.93927 9.80752C6.11147 10.1385 6.46252 10.4629 6.84667 10.6549L7.17122 10.8072L6.78706 10.8138C6.41615 10.8138 6.40291 10.8204 6.44265 10.9595C6.57511 11.3898 7.09836 11.8466 7.68123 12.0452L8.09188 12.1842L7.73421 12.3961C7.20434 12.7006 6.58174 12.8727 5.95914 12.886C5.66108 12.8926 5.41602 12.9191 5.41602 12.9389C5.41602 13.0051 6.22407 13.3759 6.69434 13.5215C8.10513 13.9518 9.78085 13.7665 11.0393 13.0316C11.9335 12.5086 12.8276 11.4692 13.2449 10.4629C13.4701 9.92668 13.6953 8.94687 13.6953 8.47683C13.6953 8.17229 13.7152 8.13257 14.0861 7.76845C14.3046 7.5566 14.51 7.32489 14.5497 7.25869C14.6159 7.1329 14.6093 7.1329 14.2715 7.24545C13.7085 7.44406 13.6291 7.41758 13.9072 7.11966C14.1126 6.90781 14.3576 6.52383 14.3576 6.41129C14.3576 6.39143 14.2583 6.42453 14.1457 6.48411C14.0265 6.55031 13.7615 6.64962 13.5628 6.7092L13.2052 6.82175L12.8806 6.60328C12.7018 6.48411 12.4501 6.3517 12.3176 6.31198C11.9798 6.2193 11.4632 6.23254 11.1585 6.33846C10.3306 6.63638 9.80735 7.40434 9.86696 8.24512Z" fill="#CCCCCC"/>
</svg>
