<svg width="20" height="20" viewBox="0 0 20 20" fill="none" xmlns="http://www.w3.org/2000/svg">
<path fill-rule="evenodd" clip-rule="evenodd" d="M10 20C15.5228 20 20 15.5228 20 10C20 4.47715 15.5228 0 10 0C4.47715 0 0 4.47715 0 10C0 15.5228 4.47715 20 10 20ZM10.2607 13.3105C10.2607 13.3105 10.4336 13.2915 10.5222 13.1972C10.6033 13.1108 10.6005 12.9478 10.6005 12.9478C10.6005 12.9478 10.5897 12.1867 10.9464 12.0743C11.298 11.9638 11.7493 12.8104 12.2284 13.1359C12.5902 13.382 12.8649 13.3282 12.8649 13.3282L14.145 13.3105C14.145 13.3105 14.8143 13.2697 14.497 12.7482C14.4707 12.7054 14.3118 12.3623 13.5455 11.6573C12.7425 10.9194 12.8504 11.0388 13.8169 9.76219C14.4056 8.98481 14.6409 8.51022 14.5673 8.30728C14.4974 8.11317 14.0643 8.16472 14.0643 8.16472L12.6235 8.17354C12.6235 8.17354 12.5166 8.15914 12.4374 8.20605C12.3601 8.25202 12.3099 8.35929 12.3099 8.35929C12.3099 8.35929 12.0821 8.96067 11.7779 9.47242C11.1362 10.5516 10.8799 10.6088 10.7749 10.5419C10.5307 10.3854 10.5916 9.91404 10.5916 9.57922C10.5916 8.53297 10.7519 8.09692 10.2799 7.98407C10.1233 7.94646 10.008 7.92185 9.60727 7.91767C9.09309 7.91256 8.65811 7.91952 8.41157 8.03887C8.24751 8.11828 8.12096 8.29567 8.1983 8.30589C8.29345 8.31843 8.50906 8.36347 8.62343 8.51765C8.77108 8.71687 8.76592 9.1636 8.76592 9.1636C8.76592 9.1636 8.85076 10.3951 8.56765 10.5479C8.3736 10.6529 8.10737 10.4388 7.53506 9.45941C7.24211 8.95788 7.02087 8.40341 7.02087 8.40341C7.02087 8.40341 6.97822 8.29985 6.90181 8.24413C6.80948 8.17679 6.68058 8.15589 6.68058 8.15589L5.31144 8.16472C5.31144 8.16472 5.10568 8.17029 5.03021 8.25899C4.96318 8.33747 5.02506 8.50046 5.02506 8.50046C5.02506 8.50046 6.09702 10.9854 7.31101 12.2378C8.42422 13.3858 9.68789 13.3105 9.68789 13.3105H10.2607Z" fill="#CCCCCC"/>
</svg>
